<?xml version="1.0" encoding="UTF-8"?>
<svg xmlns="http://www.w3.org/2000/svg" height="232" width="232" class="pyqrcode"><path transform="scale(8)" stroke="#000" class="pyqrline" d="M4 4.5h7m1 0h2m2 0h1m1 0h7m-21 1h1m5 0h1m2 0h1m1 0h2m1 0h1m5 0h1m-21 1h1m1 0h3m1 0h1m3 0h1m1 0h1m1 0h1m1 0h3m1 0h1m-21 1h1m1 0h3m1 0h1m1 0h1m5 0h1m1 0h3m1 0h1m-21 1h1m1 0h3m1 0h1m2 0h1m1 0h2m1 0h1m1 0h3m1 0h1m-21 1h1m5 0h1m2 0h1m4 0h1m5 0h1m-21 1h7m1 0h1m1 0h1m1 0h1m1 0h7m-12 1h1m1 0h1m-10 1h1m1 0h3m1 0h3m1 0h2m3 0h1m2 0h1m-21 1h3m7 0h3m1 0h2m4 0h1m-19 1h2m1 0h3m3 0h1m2 0h1m1 0h1m1 0h3m-19 1h1m1 0h1m2 0h1m2 0h1m1 0h3m-15 1h4m1 0h2m2 0h2m1 0h1m1 0h1m-7 1h2m1 0h1m1 0h2m1 0h1m2 0h1m-20 1h7m9 0h5m-21 1h1m5 0h1m1 0h1m1 0h1m1 0h4m4 0h1m-21 1h1m1 0h3m1 0h1m1 0h1m2 0h6m2 0h2m-21 1h1m1 0h3m1 0h1m2 0h1m1 0h1m1 0h1m2 0h1m1 0h2m-20 1h1m1 0h3m1 0h1m1 0h1m7 0h3m1 0h1m-21 1h1m5 0h1m3 0h2m2 0h2m1 0h1m1 0h1m-20 1h7m2 0h3m4 0h1m2 0h2"/></svg>
